#!OML:ASF X:\für Bonn\!DataBase\2005_08_10_Bjorn_Final\c3d\bjorn.ASF
:FULLY-SPECIFIED
:DEGREES
47
root 1.01393 18.1891 2.91567 -174.042 0.331131 -180.199
lowerback 5.60987 0.746089 4.1676
upperback 6.78539 1.79385 -1.34391
thorax 4.05313 1.39247 -3.74566
lowerneck -13.333 -2.80196 2.25516
upperneck 5.22243 -4.13001 -0.384638
head 4.06449 -2.02127 -0.851977
rclavicle 3.13086e-015 -5.2181e-015
rhumerus 71.8794 2.4042 -63.286
rradius 14.1008
rwrist 37.8494
rhand -10.9204 9.02195
rfingers 7.12502
rthumb 15.0972 -20.4075
lclavicle 3.13086e-015 -5.2181e-015
lhumerus 78.0302 -9.62372 61.5446
lradius 12.3642
lwrist -41.104
lhand -28.2671 -11.0576
lfingers 7.12502
lthumb -1.64384 18.9158
rfemur -29.4747 -8.94063 17.5791
rtibia 53.7494
rfoot -26.5481 9.81243
rtoes -23.3177
lfemur -30.4954 2.52294 -21.2282
ltibia 57.1705
lfoot -21.3563 -1.31617
ltoes -8.89039
48
root 1.01083 18.0711 2.95276 -174.425 0.387027 -180.36
lowerback 6.64819 0.652716 4.13379
upperback 7.02049 1.78473 -1.41277
thorax 3.72065 1.41758 -3.82222
lowerneck -13.5509 -2.73775 2.30652
upperneck 4.79601 -4.06874 -0.39324
head 3.95461 -2.00095 -0.857616
rclavicle -2.96935e-014 2.68359e-015
rhumerus 72.1624 2.72459 -60.9572
rradius 14.3504
rwrist 36.1858
rhand -11.0904 8.83773
rfingers 7.12502
rthumb 14.9334 -20.6039
lclavicle -2.96935e-014 2.68359e-015
lhumerus 78.2319 -9.5533 60.962
lradius 12.4241
lwrist -40.3555
lhand -29.4665 -11.1687
lfingers 7.12502
lthumb -2.80223 18.7926
rfemur -30.2522 -8.86753 17.3265
rtibia 55.7341
rfoot -27.1413 9.81355
rtoes -23.6866
lfemur -31.4025 2.50128 -21.5406
ltibia 59.3545
lfoot -21.7668 -0.992235
ltoes -9.12105
49
root 1.00821 17.9474 2.9903 -174.77 0.460312 -180.507
lowerback 7.65524 0.571538 4.09979
upperback 7.25915 1.79288 -1.46609
thorax 3.41372 1.45293 -3.88274
lowerneck -13.7495 -2.68842 2.27506
upperneck 4.34277 -4.01971 -0.352172
head 3.83413 -1.98755 -0.831925
rclavicle 3.05631e-015 -9.69075e-015
rhumerus 72.5755 2.66512 -60.2842
rradius 14.2764
rwrist 36.1924
rhand -11.1961 8.89201
rfingers 7.12502
rthumb 14.8315 -20.5572
lclavicle 3.05631e-015 -9.69075e-015
lhumerus 78.3843 -9.4484 60.7033
lradius 12.52
lwrist -39.8704
lhand -30.6267 -11.4189
lfingers 7.12502
lthumb -3.9227 18.5248
rfemur -31.0961 -8.76564 17.0971
rtibia 57.7589
rfoot -27.7269 9.83213
rtoes -24.0061
lfemur -32.3688 2.50781 -21.8303
ltibia 61.5775
lfoot -22.1748 -0.634485
ltoes -9.93618
50
root 1.00486 17.8169 3.03021 -175.023 0.523812 -180.659
lowerback 8.55795 0.47774 4.08087
upperback 7.51433 1.78378 -1.53626
thorax 3.18467 1.4842 -3.96592
lowerneck -13.9847 -2.63122 2.26222
upperneck 3.86704 -3.96753 -0.32414
head 3.71259 -1.97488 -0.814338
rclavicle -1.49089e-016 -5.1684e-015
rhumerus 72.8934 2.473 -60.0842
rradius 14.5252
rwrist 36.5946
rhand -11.0559 8.9821
rfingers 7.12502
rthumb 14.9667 -20.4571
lclavicle -1.49089e-016 -5.1684e-015
lhumerus 78.5712 -9.28703 60.4185
lradius 12.6684
lwrist -39.3517
lhand -31.6933 -11.6617
lfingers 7.12502
lthumb -4.95259 18.2605
rfemur -32.0973 -8.69011 16.8791
rtibia 59.8427
rfoot -28.2936 9.80448
rtoes -24.4905
lfemur -33.4881 2.5039 -22.1294
ltibia 63.8515
lfoot -22.5534 -0.113418
ltoes -11.8141
51
root 1.00032 17.6782 3.07068 -175.159 0.608496 -180.83
lowerback 9.34161 0.402465 4.04717
upperback 7.73169 1.78566 -1.61832
thorax 2.98503 1.51707 -4.05161
lowerneck -14.1602 -2.56718 2.25912
upperneck 3.39714 -3.90722 -0.305998
head 3.58149 -1.95911 -0.800006
rclavicle -3.14577e-014 2.11706e-014
rhumerus 73.3234 2.28444 -59.8337
rradius 14.5783
rwrist 36.8414
rhand -10.9716 9.05365
rfingers 7.12502
rthumb 15.0478 -20.3795
lclavicle -3.14577e-014 2.11706e-014
lhumerus 78.7756 -9.10427 60.1875
lradius 12.7867
lwrist -38.9285
lhand -32.5877 -11.9912
lfingers 7.12502
lthumb -5.81618 17.909
rfemur -33.2854 -8.62842 16.6511
rtibia 62.0011
rfoot -28.8405 9.77757
rtoes -25.0921
lfemur -34.7862 2.52664 -22.4569
ltibia 66.184
lfoot -22.8866 0.409632
ltoes -13.9224
52
root 0.995393 17.53 3.11192 -175.26 0.70085 -180.984
lowerback 10.0579 0.323484 4.02985
upperback 7.97219 1.78498 -1.69166
thorax 2.84909 1.55293 -4.13511
lowerneck -14.2898 -2.50973 2.17595
upperneck 2.87908 -3.8488 -0.21977
head 3.4277 -1.94444 -0.747383
rclavicle 1.63997e-015 1.27222e-014
rhumerus 73.789 2.2607 -58.2973
rradius 14.7802
rwrist 35.8769
rhand -10.8827 8.95235
rfingers 7.12502
rthumb 15.1335 -20.4743
lclavicle 1.63997e-015 1.27222e-014
lhumerus 79.0333 -8.88276 59.9228
lradius 12.8939
lwrist -38.4931
lhand -33.3367 -12.3544
lfingers 7.12502
lthumb -6.53923 17.5246
rfemur -34.5614 -8.53205 16.4381
rtibia 64.2331
rfoot -29.3565 9.79742
rtoes -25.4847
lfemur -36.1556 2.55193 -22.7686
ltibia 68.5665
lfoot -23.1506 0.985523
ltoes -16.1914
53
root 0.989386 17.3719 3.15586 -175.303 0.793132 -181.14
lowerback 10.7246 0.240739 4.01241
upperback 8.20083 1.77569 -1.77093
thorax 2.72908 1.58409 -4.22327
lowerneck -14.3984 -2.44513 2.12858
upperneck 2.36443 -3.78543 -0.178013
head 3.27017 -1.92962 -0.715409
rclavicle 8.79622e-015 -2.24627e-014
rhumerus 74.3871 2.19989 -56.765
rradius 14.754
rwrist 34.9509
rhand -10.9082 8.92007
rfingers 7.12502
rthumb 15.1089 -20.5085
lclavicle 8.79622e-015 -2.24627e-014
lhumerus 79.3085 -8.61419 59.7158
lradius 12.9696
lwrist -38.2908
lhand -33.9446 -12.6639
lfingers 7.12502
lthumb -7.12613 17.1962
rfemur -35.9585 -8.49606 16.2287
rtibia 66.5326
rfoot -29.8467 9.89316
rtoes -25.8157
lfemur -37.632 2.53882 -23.053
ltibia 70.996
lfoot -23.3706 1.36828
ltoes -17.8536
54
root 0.983374 17.2057 3.19943 -175.309 0.886605 -181.298
lowerback 11.3155 0.157727 3.97199
upperback 8.43494 1.76073 -1.82854
thorax 2.65559 1.61184 -4.27285
lowerneck -14.4242 -2.3952 1.9787
upperneck 1.8178 -3.72698 -0.0755992
head 3.08921 -1.91678 -0.643787
rclavicle -2.03754e-015 -3.97569e-015
rhumerus 75.0051 2.13409 -55.0824
rradius 14.7627
rwrist 33.9372
rhand -10.9561 8.82081
rfingers 7.12502
rthumb 15.0628 -20.6112
lclavicle -2.03754e-015 -3.97569e-015
lhumerus 79.6024 -8.31013 59.5009
lradius 13.0091
lwrist -38.1424
lhand -34.3722 -12.9801
lfingers 7.12502
lthumb -7.53879 16.8655
rfemur -37.4374 -8.55961 16.0092
rtibia 68.8876
rfoot -30.2905 10.123
rtoes -26.0439
lfemur -39.1614 2.47019 -23.2868
ltibia 73.4486
lfoot -23.5961 1.40749
ltoes -18.451
55
root 0.976163 17.0301 3.24486 -175.307 0.987242 -181.438
lowerback 11.9191 0.0701253 3.96608
upperback 8.67078 1.7468 -1.89992
thorax 2.58081 1.64367 -4.35702
lowerneck -14.4546 -2.32613 1.8694
upperneck 1.2422 -3.65409 0.0235998
head 2.89936 -1.89846 -0.579714
rclavicle 5.46658e-015 9.93923e-017
rhumerus 75.5648 1.9631 -53.6713
rradius 14.8745
rwrist 33.2417
rhand -11.0423 8.73549
rfingers 7.12502
rthumb 14.9797 -20.7027
lclavicle 5.46658e-015 9.93923e-017
lhumerus 79.9163 -7.9804 59.4084
lradius 13.0084
lwrist -38.2923
lhand -34.6701 -13.2354
lfingers 7.12502
lthumb -7.82635 16.5998
rfemur -38.9686 -8.64217 15.8119
rtibia 71.2914
rfoot -30.7006 10.3281
rtoes -26.376
lfemur -40.7315 2.4127 -23.4898
ltibia 75.9284
lfoot -23.7567 1.40368
ltoes -19.0272
56
root 0.968551 16.8472 3.28968 -175.258 1.09195 -181.577
lowerback 12.4789 -0.0120934 3.95959
upperback 8.89329 1.73596 -1.97551
thorax 2.51767 1.67611 -4.44467
lowerneck -14.5392 -2.26705 1.80377
upperneck 0.736362 -3.60086 0.0715399
head 2.74276 -1.89078 -0.54393
rclavicle -1.28713e-014 1.48095e-014
rhumerus 76.053 1.68432 -52.7478
rradius 15.0946
rwrist 33.0864
rhand -11.0395 8.69273
rfingers 7.12502
rthumb 14.9824 -20.7453
lclavicle -1.28713e-014 1.48095e-014
lhumerus 80.2197 -7.63633 59.2915
lradius 13.0121
lwrist -38.6499
lhand -34.9299 -13.4168
lfingers 7.12502
lthumb -8.07709 16.4089
rfemur -40.5938 -8.76141 15.6065
rtibia 73.7493
rfoot -31.078 10.6397
rtoes -26.631
lfemur -42.3711 2.36489 -23.6878
ltibia 78.4291
lfoot -23.9147 1.3974
ltoes -19.7771
